<!-- Generator: Adobe Illustrator 22.0.1, SVG Export Plug-In  -->
<svg version="1.1"
	 xmlns="http://www.w3.org/2000/svg" xmlns:xlink="http://www.w3.org/1999/xlink" xmlns:a="http://ns.adobe.com/AdobeSVGViewerExtensions/3.0/"
	 x="0px" y="0px" width="442.993px" height="420.304px" viewBox="0 0 442.993 420.304"
	 style="overflow:inherit;enable-background:new 0 0 442.993 420.304;" xml:space="preserve">
<style type="text/css">
	.st0{fill:#FFFFFF;}
</style>
<defs>
</defs>
<g>
	<path class="st0" d="M425.969,374.339H45.65c-1.759,0-3.185-1.431-3.185-3.196s1.426-3.196,3.185-3.196h380.32
		c1.759,0,3.185,1.431,3.185,3.196S427.728,374.339,425.969,374.339z"/>
	<g>
		<path class="st0" d="M51.283,404.919h-5.857v6.295h4.401v0.886h-4.401v7.892h-0.855v-15.961h6.712V404.919z"/>
		<path class="st0" d="M69.335,404.919h-1.819v14.187h1.819v0.886h-4.492v-0.886h1.819v-14.187h-1.819v-0.888h4.492V404.919z"/>
		<path class="st0" d="M83.857,404.032h3.273c1.528,0,2.583,1.02,3.129,2.262c0.436,0.976,0.8,2.816,0.8,5.719
			c0,4.056-0.819,5.786-1.054,6.206c-0.601,1.043-1.528,1.774-3.129,1.774h-3.018V404.032z M84.711,419.107h1.619
			c1.437,0,2.638-0.245,3.273-2.04c0.509-1.419,0.546-3.524,0.546-5.053c0-1.53-0.037-3.836-0.6-5.21
			c-0.692-1.685-1.838-1.884-3.22-1.884h-1.619V419.107z"/>
		<path class="st0" d="M110.747,404.919H105.2v6.429h3.982v0.886H105.2v6.872h5.674v0.886h-6.529v-15.961h6.402V404.919z"/>
		<path class="st0" d="M125.506,419.107h5.748v0.886h-6.602v-15.961h0.855V419.107z"/>
		<path class="st0" d="M149.25,404.919h-1.819v14.187h1.819v0.886h-4.492v-0.886h1.819v-14.187h-1.819v-0.888h4.492V404.919z"/>
		<path class="st0" d="M170.248,404.032v0.888l-5.638,14.187h6.074v0.886h-7.092v-0.886l5.693-14.187h-5.493v-0.888H170.248z"/>
		<path class="st0" d="M191.371,419.993h-0.963l-1.183-4.855h-4.456l-1.2,4.855h-0.946l4.366-16.603L191.371,419.993z
			 M184.951,414.252h4.092l-2.054-8.025L184.951,414.252z"/>
		<path class="st0" d="M209.933,404.032h0.945v15.961h-0.855v-13.855h-0.037l-3.037,8.868l-3.037-8.868l-0.036,0.045v13.81h-0.855
			v-15.961h0.945l2.983,8.779L209.933,404.032z"/>
		<path class="st0" d="M223.072,412.013c0-3.636,0.363-8.291,3.892-8.291c3.856,0,3.837,5.586,3.837,8.291
			c0,6.783-1.746,8.291-3.837,8.291C224.891,420.304,223.072,418.841,223.072,412.013z M226.964,419.416
			c1.746,0,2.928-1.662,2.928-7.403c0-5.941-1.254-7.404-2.928-7.404c-1.891,0-2.983,1.906-2.983,7.404
			C223.981,417.976,225.328,419.416,226.964,419.416z"/>
		<path class="st0" d="M249.799,406.294c-0.819-0.865-1.746-1.685-2.873-1.685c-1.328,0-2.42,1.108-2.42,2.793
			c0,1.242,0.455,2.062,2.055,3.259l1.074,0.798c2.073,1.53,3.018,2.438,3.018,4.41c0,2.75-1.472,4.434-3.71,4.434
			c-1.546,0-2.765-0.888-3.692-2.35l0.655-0.643c0.692,1.219,1.783,2.105,3.037,2.105c1.528,0,2.801-1.374,2.801-3.281
			c0-1.507-0.145-2.084-2.564-3.835l-1.219-0.886c-1.256-0.909-2.365-1.973-2.365-3.902c0-2.394,1.491-3.79,3.384-3.79
			c1.237,0,2.436,0.797,3.328,1.796L249.799,406.294z"/>
		<path class="st0" d="M291.065,404.919h-3.782v15.074h-0.855v-15.074h-3.766v-0.888h8.403V404.919z"/>
		<path class="st0" d="M310.263,404.032v11.861c0,3.148-1.964,4.412-3.419,4.412c-1.8,0-3.455-1.819-3.455-4.168v-12.104h0.855
			v11.328c0,3.037,1.182,4.056,2.601,4.056c1.491,0,2.565-1.108,2.565-3.701v-11.684H310.263z"/>
		<path class="st0" d="M349.784,404.032h0.946v15.961h-0.855v-13.855h-0.037l-3.037,8.868l-3.037-8.868l-0.036,0.045v13.81h-0.855
			v-15.961h0.945l2.983,8.779L349.784,404.032z"/>
		<path class="st0" d="M371.182,419.993h-0.963l-1.183-4.855h-4.456l-1.2,4.855h-0.946l4.366-16.603L371.182,419.993z
			 M364.762,414.252h4.092l-2.054-8.025L364.762,414.252z"/>
		<path class="st0" d="M383.922,404.032h3.11c2.201,0,3.473,1.796,3.473,4.39c0,2.017-0.927,3.813-2.528,4.433l3.529,7.138h-1.074
			l-3.255-6.894h-2.401v6.894h-0.855V404.032z M384.777,412.212h2.128c1.164,0,2.691-1.086,2.691-3.879
			c0-1.862-0.727-3.413-2.564-3.413h-2.255V412.212z"/>
		<path class="st0" d="M409.375,407.048c-0.055-1.397-1.019-2.439-2.164-2.439c-3.037,0-3.274,4.81-3.274,7.515
			c0,2.638,0.218,7.292,3.165,7.292c1.364,0,2.401-1.24,2.455-2.881h0.855c-0.182,2.35-1.437,3.768-3.383,3.768
			c-3.456,0-4.001-4.833-4.001-8.069c0-3.391,0.492-8.512,4.184-8.512c1.6,0,2.873,1.374,3.018,3.325H409.375z"/>
		<path class="st0" d="M431.117,419.993h-0.963l-1.183-4.855h-4.456l-1.2,4.855h-0.946l4.366-16.603L431.117,419.993z
			 M424.697,414.252h4.092l-2.054-8.025L424.697,414.252z"/>
	</g>
	<g>
		<g>
			<circle class="st0" cx="425.445" cy="371.165" r="7.178"/>
		</g>
	</g>
	<path class="st0" d="M213.114,336.151v-52.687c2.253-1.191,3.78-3.48,3.78-6.11c0-3.857-3.279-6.984-7.323-6.984
		s-7.323,3.127-7.323,6.984c0,2.935,1.9,5.442,4.59,6.476v48.094l-35.758-51.308c0.541-0.974,0.85-2.083,0.85-3.262
		c0-3.857-3.279-6.984-7.323-6.984s-7.323,3.127-7.323,6.984c0,2.784,1.713,5.181,4.185,6.303v52.303
		c-2.472,1.122-4.185,3.518-4.185,6.303c0,3.857,3.279,6.984,7.323,6.984s7.323-3.127,7.323-6.984c0-2.784-1.713-5.181-4.185-6.303
		v-49.314l35.906,51.519c-0.878,1.152-1.402,2.565-1.402,4.098c0,3.857,3.279,6.984,7.323,6.984s7.323-3.127,7.323-6.984
		C216.894,339.63,215.367,337.342,213.114,336.151z"/>
	<path class="st0" d="M151.051,336.031c-0.458-0.179-0.923-0.31-1.391-0.395c-0.017-0.044-0.023-0.09-0.043-0.134l-22.876-52.209
		c1.304-0.743,2.38-1.877,2.998-3.328c1.509-3.542-0.263-7.586-3.958-9.033c-3.695-1.447-7.913,0.252-9.422,3.795
		c-1.389,3.261,0.007,6.942,3.119,8.635l-22.222,52.171c-2.697,0.146-5.199,1.734-6.288,4.292c-1.509,3.542,0.263,7.586,3.958,9.033
		c3.695,1.447,7.913-0.252,9.422-3.795c1.089-2.557,0.462-5.371-1.357-7.285l20.164-47.338l20.478,46.736
		c-0.852,0.695-1.551,1.587-2.003,2.649c-1.509,3.542,0.263,7.586,3.958,9.033c3.695,1.447,7.913-0.252,9.422-3.795
		C156.518,341.522,154.746,337.478,151.051,336.031z"/>
	<path class="st0" d="M334.413,336.137c-0.458-0.18-0.923-0.31-1.391-0.395c-0.017-0.044-0.023-0.09-0.043-0.134l-22.876-52.293
		c1.304-0.744,2.38-1.88,2.998-3.333c1.509-3.548-0.263-7.599-3.958-9.047c-3.695-1.449-7.913,0.253-9.422,3.801
		c-1.389,3.266,0.007,6.953,3.119,8.649l-22.222,52.255c-2.697,0.146-5.199,1.737-6.288,4.298c-1.509,3.548,0.263,7.599,3.958,9.048
		c3.695,1.449,7.913-0.253,9.422-3.801c1.089-2.561,0.462-5.379-1.357-7.297l20.164-47.415l20.478,46.811
		c-0.852,0.697-1.551,1.59-2.003,2.653c-1.509,3.548,0.263,7.599,3.958,9.048c3.695,1.449,7.913-0.253,9.422-3.801
		C339.88,341.637,338.108,337.586,334.413,336.137z"/>
	<path class="st0" d="M270.712,336.289l-0.006-27.145c2.257-1.184,3.794-3.512,3.794-6.193c0-3.879-3.214-7.023-7.178-7.023
		c-2.869,0-5.338,1.651-6.487,4.032l-5.042,0.002c-0.724-1.502-1.973-2.711-3.519-3.4l-0.004-13.019
		c2.424-1.128,4.104-3.538,4.104-6.339c0-3.879-3.214-7.023-7.178-7.023c-2.995,0-5.56,1.796-6.635,4.347h-8.455
		c-1.076-2.551-3.64-4.347-6.635-4.347c-3.964,0-7.178,3.144-7.178,7.023c0,2.8,1.679,5.21,4.102,6.338v52.599
		c-2.423,1.128-4.102,3.538-4.102,6.338c0,3.879,3.214,7.023,7.178,7.023c2.707,0,5.062-1.467,6.285-3.632h27.283
		c1.223,2.165,3.578,3.632,6.285,3.632c3.964,0,7.178-3.144,7.178-7.023C274.499,339.801,272.966,337.473,270.712,336.289z
		 M233.783,280.548h9.099c0.723,1.305,1.861,2.353,3.235,2.993l0.004,13.122c-1.446,0.702-2.612,1.865-3.303,3.295l-11.661,0.005
		c-0.209,0-0.414,0.022-0.612,0.061v-16.482C231.921,282.902,233.059,281.853,233.783,280.548z M230.546,336.141v-30.218
		c0.199,0.04,0.404,0.061,0.614,0.061l11.676-0.005c1.156,2.361,3.614,3.996,6.469,3.996c2.853,0,5.31-1.633,6.467-3.992l5.08-0.002
		c0.759,1.549,2.075,2.786,3.701,3.452l0.006,26.565c-1.767,0.722-3.172,2.115-3.891,3.854h-26.546
		C233.448,338.217,232.164,336.894,230.546,336.141z"/>
	<path class="st0" d="M388.32,336.056l-0.006-27.332c2.257-1.192,3.793-3.536,3.793-6.236c0-3.906-3.213-7.072-7.178-7.072
		c-3.034,0-5.621,1.857-6.672,4.477l-4.671,0.002c-0.683-1.706-2.018-3.083-3.704-3.84l-0.005-12.974
		c2.483-1.113,4.213-3.572,4.213-6.435c0-3.906-3.213-7.072-7.178-7.072c-2.964,0-5.506,1.77-6.602,4.295h-8.598
		c-1.076-2.568-3.64-4.377-6.635-4.377c-3.964,0-7.178,3.166-7.178,7.072c0,2.819,1.679,5.246,4.102,6.382v52.961
		c-2.423,1.136-4.102,3.563-4.102,6.382c0,3.905,3.214,7.071,7.178,7.071s7.178-3.166,7.178-7.071c0-2.819-1.679-5.246-4.101-6.382
		v-52.961c1.375-0.645,2.513-1.701,3.237-3.015h9.168c0.702,1.316,1.814,2.382,3.166,3.045l0.004,13.182
		c-2.365,1.157-3.995,3.553-3.995,6.331c0,3.906,3.214,7.072,7.178,7.072c2.683,0,5.019-1.453,6.251-3.602l5.513-0.003
		c0.781,1.364,2.006,2.449,3.484,3.059l0.006,26.748c-2.593,1.066-4.416,3.586-4.416,6.527c0,3.905,3.213,7.071,7.178,7.071
		s7.178-3.166,7.178-7.071C392.107,339.592,390.573,337.249,388.32,336.056z"/>
	<path class="st0" d="M442.993,277.334c0-3.882-3.214-7.029-7.178-7.029c-3.965,0-7.178,3.147-7.178,7.029
		c0,2.803,1.68,5.216,4.104,6.345l0.017,44.085c0,0.599-0.068,1.402-0.075,2.182c-0.002,0.043-0.012,0.083-0.012,0.126
		c0.067,7.947-6.549,14.226-15.061,14.295c-0.047,0-0.094,0.001-0.14,0.001c-4.06-0.001-7.851-1.429-10.689-4.032
		c-2.688-2.466-4.237-5.768-4.439-9.351c-0.015-0.619-0.062-1.251-0.062-1.779l-0.197-45.54c2.41-1.134,4.079-3.539,4.079-6.333
		c0-3.882-3.214-7.029-7.178-7.029c-3.964,0-7.178,3.147-7.178,7.029c0,2.802,1.679,5.215,4.101,6.344v45.474
		c0,0.441,0.016,0.937,0.067,1.428c0.103,5.477,2.39,10.545,6.472,14.289c4.018,3.686,9.346,5.709,15.021,5.709
		c0.065,0,0.13,0,0.194-0.001c11.539-0.094,20.597-8.359,21.285-19.075c0.087-0.573,0.086-1.225,0.086-1.845l-0.127-45.985
		C441.321,282.539,442.993,280.131,442.993,277.334z"/>
	<path class="st0" d="M111.234,308.588c-2.862,0-5.325,1.679-6.478,4.102H50.999c-0.858-1.803-2.439-3.195-4.375-3.787
		c-0.696-0.225-1.436-0.349-2.207-0.349c-3.964,0-7.178,3.214-7.178,7.178c0,2.009,0.828,3.824,2.159,5.126
		c0.561,0.566,1.219,1.033,1.943,1.388v28.672c-17.971-1.601-32.108-16.733-32.108-35.113c0-19.443,15.818-35.261,35.261-35.261
		c10.41,0,19.78,4.534,26.24,11.732l6.619-6.439c-8.142-8.92-19.859-14.525-32.859-14.525C19.96,271.311,0,291.271,0,315.805
		c0,23.473,18.274,42.745,41.341,44.369v15.792c-2.423,1.153-4.102,3.616-4.102,6.478c0,3.964,3.214,7.178,7.178,7.178
		s7.178-3.214,7.178-7.178c0-2.862-1.679-5.325-4.102-6.478v-15.78c22.133-1.482,39.877-19.215,41.378-41.343h15.884
		c1.153,2.423,3.616,4.102,6.478,4.102c3.964,0,7.178-3.214,7.178-7.178S115.198,308.588,111.234,308.588z M47.494,350.929v-28.61
		c1.2-0.554,2.224-1.422,2.956-2.508c0.209-0.306,0.389-0.631,0.55-0.969h28.616C78.153,335.878,64.534,349.485,47.494,350.929z"/>
	<path class="st0" d="M346.904,66.805c-5.129,0-9.543,3.009-11.609,7.351h-96.338c-1.538-3.232-4.371-5.725-7.841-6.787
		c-1.247-0.403-2.574-0.626-3.955-0.626c-7.104,0-12.864,5.759-12.864,12.864c0,3.601,1.484,6.852,3.869,9.187
		c1.006,1.014,2.185,1.851,3.482,2.487v51.383c-32.206-2.869-57.542-29.987-57.542-62.926c0-34.844,28.347-63.192,63.192-63.192
		c18.655,0,35.449,8.126,47.026,21.024l11.861-11.54C271.593,10.044,250.596,0,227.298,0C183.33,0,147.56,35.77,147.56,79.738
		c0,42.066,32.75,76.604,74.088,79.515v28.301c-4.342,2.066-7.351,6.481-7.351,11.609c0,7.104,5.759,12.864,12.864,12.864
		s12.864-5.759,12.864-12.864c0-5.128-3.009-9.543-7.351-11.609v-28.28c39.666-2.656,71.464-34.435,74.154-74.092h28.466
		c2.066,4.342,6.481,7.351,11.609,7.351c7.104,0,12.863-5.759,12.863-12.864S354.008,66.805,346.904,66.805z M232.674,142.685
		V91.412c2.15-0.992,3.986-2.549,5.298-4.495c0.375-0.548,0.697-1.132,0.985-1.736h51.283
		C287.62,115.711,263.212,140.097,232.674,142.685z"/>
</g>
</svg>